<mxfile host="Electron" modified="2024-12-01T09:24:10.202Z" agent="Mozilla/5.0 (X11; Linux x86_64) AppleWebKit/537.36 (KHTML, like Gecko) draw.io/24.4.0 Chrome/120.0.6099.109 Electron/28.1.0 Safari/537.36" etag="Z43V7tWmjVT4JM5jw7XM" version="24.4.0" type="device">
  <diagram name="Page-1" id="DIBnqMEA-XPOdM7uecft">
    <mxGraphModel dx="1663" dy="562" grid="1" gridSize="10" guides="1" tooltips="1" connect="1" arrows="1" fold="1" page="1" pageScale="1" pageWidth="850" pageHeight="1100" math="0" shadow="0">
      <root>
        <mxCell id="0" />
        <mxCell id="1" parent="0" />
        <mxCell id="uYT_6rUbIimLwQSJ-b0x-1" value="&lt;font style=&quot;font-size: 24px;&quot;&gt;init&lt;/font&gt;" style="rounded=0;whiteSpace=wrap;html=1;sketch=1;hachureGap=4;jiggle=2;curveFitting=1;fontFamily=Architects Daughter;fontSource=https%3A%2F%2Ffonts.googleapis.com%2Fcss%3Ffamily%3DArchitects%2BDaughter;fillColor=none;" parent="1" vertex="1">
          <mxGeometry x="180" y="360" width="70" height="30" as="geometry" />
        </mxCell>
        <mxCell id="uYT_6rUbIimLwQSJ-b0x-3" value="" style="endArrow=none;html=1;rounded=0;sketch=1;hachureGap=4;jiggle=2;curveFitting=1;fontFamily=Architects Daughter;fontSource=https%3A%2F%2Ffonts.googleapis.com%2Fcss%3Ffamily%3DArchitects%2BDaughter;entryX=0.5;entryY=1;entryDx=0;entryDy=0;exitX=0.512;exitY=-0.106;exitDx=0;exitDy=0;exitPerimeter=0;" parent="1" source="uYT_6rUbIimLwQSJ-b0x-31" target="uYT_6rUbIimLwQSJ-b0x-1" edge="1">
          <mxGeometry width="50" height="50" relative="1" as="geometry">
            <mxPoint x="215" y="660" as="sourcePoint" />
            <mxPoint x="212.5" y="390" as="targetPoint" />
          </mxGeometry>
        </mxCell>
        <mxCell id="uYT_6rUbIimLwQSJ-b0x-4" value="&lt;span style=&quot;font-size: 24px;&quot;&gt;runからsetns対象の名前空間を受信&lt;/span&gt;" style="text;html=1;align=left;verticalAlign=middle;whiteSpace=wrap;rounded=0;fontFamily=Architects Daughter;fontSource=https%3A%2F%2Ffonts.googleapis.com%2Fcss%3Ffamily%3DArchitects%2BDaughter;" parent="1" vertex="1">
          <mxGeometry x="-10" y="390" width="220" height="80" as="geometry" />
        </mxCell>
        <mxCell id="uYT_6rUbIimLwQSJ-b0x-5" value="&lt;span style=&quot;font-size: 24px;&quot;&gt;clone&lt;/span&gt;" style="text;html=1;align=left;verticalAlign=middle;whiteSpace=wrap;rounded=0;fontFamily=Architects Daughter;fontSource=https%3A%2F%2Ffonts.googleapis.com%2Fcss%3Ffamily%3DArchitects%2BDaughter;" parent="1" vertex="1">
          <mxGeometry x="140" y="470" width="70" height="40" as="geometry" />
        </mxCell>
        <mxCell id="uYT_6rUbIimLwQSJ-b0x-7" value="&lt;span style=&quot;font-size: 24px;&quot;&gt;setns&lt;/span&gt;" style="text;html=1;align=left;verticalAlign=middle;whiteSpace=wrap;rounded=0;fontFamily=Architects Daughter;fontSource=https%3A%2F%2Ffonts.googleapis.com%2Fcss%3Ffamily%3DArchitects%2BDaughter;" parent="1" vertex="1">
          <mxGeometry x="320" y="515" width="70" height="35" as="geometry" />
        </mxCell>
        <mxCell id="uYT_6rUbIimLwQSJ-b0x-10" value="" style="endArrow=classic;html=1;rounded=0;sketch=1;hachureGap=4;jiggle=2;curveFitting=1;fontFamily=Architects Daughter;fontSource=https%3A%2F%2Ffonts.googleapis.com%2Fcss%3Ffamily%3DArchitects%2BDaughter;" parent="1" edge="1">
          <mxGeometry width="50" height="50" relative="1" as="geometry">
            <mxPoint x="312" y="590" as="sourcePoint" />
            <mxPoint x="212" y="590" as="targetPoint" />
          </mxGeometry>
        </mxCell>
        <mxCell id="uYT_6rUbIimLwQSJ-b0x-11" value="&lt;span style=&quot;font-size: 24px;&quot;&gt;pid&lt;/span&gt;" style="text;html=1;align=left;verticalAlign=middle;whiteSpace=wrap;rounded=0;fontFamily=Architects Daughter;fontSource=https%3A%2F%2Ffonts.googleapis.com%2Fcss%3Ffamily%3DArchitects%2BDaughter;" parent="1" vertex="1">
          <mxGeometry x="250" y="550" width="40" height="30" as="geometry" />
        </mxCell>
        <mxCell id="uYT_6rUbIimLwQSJ-b0x-12" value="&lt;span style=&quot;font-size: 24px;&quot;&gt;/proc/pid/uid_map&lt;/span&gt;&lt;div&gt;&lt;span style=&quot;font-size: 24px;&quot;&gt;/proc/pid/gid_map&lt;/span&gt;&lt;/div&gt;&lt;div&gt;&lt;span style=&quot;font-size: 24px;&quot;&gt;更新&lt;/span&gt;&lt;/div&gt;" style="text;html=1;align=left;verticalAlign=middle;whiteSpace=wrap;rounded=0;fontFamily=Architects Daughter;fontSource=https%3A%2F%2Ffonts.googleapis.com%2Fcss%3Ffamily%3DArchitects%2BDaughter;" parent="1" vertex="1">
          <mxGeometry x="-15" y="540" width="220" height="110" as="geometry" />
        </mxCell>
        <mxCell id="uYT_6rUbIimLwQSJ-b0x-13" value="&lt;span style=&quot;font-size: 24px;&quot;&gt;unshare&lt;/span&gt;" style="text;html=1;align=left;verticalAlign=middle;whiteSpace=wrap;rounded=0;fontFamily=Architects Daughter;fontSource=https%3A%2F%2Ffonts.googleapis.com%2Fcss%3Ffamily%3DArchitects%2BDaughter;" parent="1" vertex="1">
          <mxGeometry x="320" y="570" width="100" height="50" as="geometry" />
        </mxCell>
        <mxCell id="uYT_6rUbIimLwQSJ-b0x-16" value="&lt;span style=&quot;font-size: 24px;&quot;&gt;clone&lt;/span&gt;" style="text;html=1;align=left;verticalAlign=middle;whiteSpace=wrap;rounded=0;fontFamily=Architects Daughter;fontSource=https%3A%2F%2Ffonts.googleapis.com%2Fcss%3Ffamily%3DArchitects%2BDaughter;" parent="1" vertex="1">
          <mxGeometry x="320" y="620" width="70" height="40" as="geometry" />
        </mxCell>
        <mxCell id="uYT_6rUbIimLwQSJ-b0x-18" value="" style="endArrow=none;html=1;rounded=0;sketch=1;hachureGap=4;jiggle=2;curveFitting=1;fontFamily=Architects Daughter;fontSource=https%3A%2F%2Ffonts.googleapis.com%2Fcss%3Ffamily%3DArchitects%2BDaughter;" parent="1" target="uYT_6rUbIimLwQSJ-b0x-27" edge="1">
          <mxGeometry width="50" height="50" relative="1" as="geometry">
            <mxPoint x="455" y="710" as="sourcePoint" />
            <mxPoint x="469.71000000000004" y="750" as="targetPoint" />
          </mxGeometry>
        </mxCell>
        <mxCell id="uYT_6rUbIimLwQSJ-b0x-19" value="&lt;span style=&quot;font-size: 24px;&quot;&gt;cleanup&lt;/span&gt;" style="text;html=1;align=left;verticalAlign=middle;whiteSpace=wrap;rounded=0;fontFamily=Architects Daughter;fontSource=https%3A%2F%2Ffonts.googleapis.com%2Fcss%3Ffamily%3DArchitects%2BDaughter;" parent="1" vertex="1">
          <mxGeometry x="460" y="660" width="80" height="40" as="geometry" />
        </mxCell>
        <mxCell id="uYT_6rUbIimLwQSJ-b0x-22" value="&lt;font style=&quot;font-size: 24px;&quot;&gt;init&lt;/font&gt;" style="rounded=0;whiteSpace=wrap;html=1;sketch=1;hachureGap=4;jiggle=2;curveFitting=1;fontFamily=Architects Daughter;fontSource=https%3A%2F%2Ffonts.googleapis.com%2Fcss%3Ffamily%3DArchitects%2BDaughter;fillColor=none;" parent="1" vertex="1">
          <mxGeometry x="280" y="470" width="70" height="30" as="geometry" />
        </mxCell>
        <mxCell id="uYT_6rUbIimLwQSJ-b0x-26" value="" style="endArrow=none;html=1;rounded=0;sketch=1;hachureGap=4;jiggle=2;curveFitting=1;fontFamily=Architects Daughter;fontSource=https%3A%2F%2Ffonts.googleapis.com%2Fcss%3Ffamily%3DArchitects%2BDaughter;entryX=0.5;entryY=1;entryDx=0;entryDy=0;" parent="1" edge="1">
          <mxGeometry width="50" height="50" relative="1" as="geometry">
            <mxPoint x="315" y="670" as="sourcePoint" />
            <mxPoint x="314.73" y="500" as="targetPoint" />
          </mxGeometry>
        </mxCell>
        <mxCell id="uYT_6rUbIimLwQSJ-b0x-27" value="&lt;font style=&quot;font-size: 24px;&quot;&gt;init&lt;/font&gt;" style="rounded=0;whiteSpace=wrap;html=1;sketch=1;hachureGap=4;jiggle=2;curveFitting=1;fontFamily=Architects Daughter;fontSource=https%3A%2F%2Ffonts.googleapis.com%2Fcss%3Ffamily%3DArchitects%2BDaughter;fillColor=none;" parent="1" vertex="1">
          <mxGeometry x="420" y="625" width="70" height="30" as="geometry" />
        </mxCell>
        <mxCell id="uYT_6rUbIimLwQSJ-b0x-29" value="&lt;span style=&quot;font-size: 24px;&quot;&gt;return&lt;/span&gt;" style="text;html=1;align=left;verticalAlign=middle;whiteSpace=wrap;rounded=0;fontFamily=Architects Daughter;fontSource=https%3A%2F%2Ffonts.googleapis.com%2Fcss%3Ffamily%3DArchitects%2BDaughter;" parent="1" vertex="1">
          <mxGeometry x="415" y="710" width="80" height="40" as="geometry" />
        </mxCell>
        <mxCell id="uYT_6rUbIimLwQSJ-b0x-30" value="&lt;span style=&quot;font-size: 24px;&quot;&gt;exit&lt;/span&gt;" style="text;html=1;align=left;verticalAlign=middle;whiteSpace=wrap;rounded=0;fontFamily=Architects Daughter;fontSource=https%3A%2F%2Ffonts.googleapis.com%2Fcss%3Ffamily%3DArchitects%2BDaughter;" parent="1" vertex="1">
          <mxGeometry x="290" y="670" width="50" height="40" as="geometry" />
        </mxCell>
        <mxCell id="uYT_6rUbIimLwQSJ-b0x-31" value="&lt;span style=&quot;font-size: 24px;&quot;&gt;exit&lt;/span&gt;" style="text;html=1;align=left;verticalAlign=middle;whiteSpace=wrap;rounded=0;fontFamily=Architects Daughter;fontSource=https%3A%2F%2Ffonts.googleapis.com%2Fcss%3Ffamily%3DArchitects%2BDaughter;" parent="1" vertex="1">
          <mxGeometry x="190" y="710" width="50" height="40" as="geometry" />
        </mxCell>
      </root>
    </mxGraphModel>
  </diagram>
</mxfile>
